<svg width="32" height="32" viewBox="0 0 32 32" fill="none" xmlns="http://www.w3.org/2000/svg">
<path d="M12.72 21.2274V14.1074L10.72 16.3341" stroke="white" stroke-width="1.5" stroke-linecap="round" stroke-linejoin="round"/>
<path d="M13.36 5.95931L16 2.66602" stroke="white" stroke-width="1.5" stroke-linecap="round" stroke-linejoin="round"/>
<path d="M6.54663 10.4003C5.06663 12.3736 4.14661 14.8136 4.14661 17.4803C4.14661 24.027 9.45329 29.3337 16 29.3337C22.5466 29.3337 27.8533 24.027 27.8533 17.4803C27.8533 10.9336 22.5466 5.62695 16 5.62695C15.0933 5.62695 14.2133 5.74702 13.3599 5.94702" stroke="white" stroke-width="1.5" stroke-linecap="round" stroke-linejoin="round"/>
<path d="M18.6667 14.1074C20.1333 14.1074 21.3333 15.3074 21.3333 16.7741V18.5741C21.3333 20.0407 20.1333 21.2407 18.6667 21.2407C17.2 21.2407 16 20.0407 16 18.5741V16.7741C16 15.2941 17.2 14.1074 18.6667 14.1074Z" stroke="white" stroke-width="1.5" stroke-linecap="round" stroke-linejoin="round"/>
</svg>
