<svg width="17" height="16" viewBox="0 0 17 16" fill="none" xmlns="http://www.w3.org/2000/svg">
<path d="M5.83337 1.33334V3.33334" stroke="#2899D5" stroke-miterlimit="10" stroke-linecap="round" stroke-linejoin="round"/>
<path d="M11.1666 1.33334V3.33334" stroke="#2899D5" stroke-miterlimit="10" stroke-linecap="round" stroke-linejoin="round"/>
<path d="M2.83337 6.06L14.1667 6.06" stroke="#2899D5" stroke-miterlimit="10" stroke-linecap="round" stroke-linejoin="round"/>
<path d="M14.5 5.66668L14.5 11.3333C14.5 13.3333 13.5 14.6667 11.1667 14.6667L5.83333 14.6667C3.5 14.6667 2.5 13.3333 2.5 11.3333L2.5 5.66668C2.5 3.66668 3.5 2.33334 5.83333 2.33334L11.1667 2.33334C13.5 2.33334 14.5 3.66668 14.5 5.66668Z" stroke="#2899D5" stroke-miterlimit="10" stroke-linecap="round" stroke-linejoin="round"/>
<path d="M10.9631 9.13335H10.9691" stroke="#2899D5" stroke-width="1.5" stroke-linecap="round" stroke-linejoin="round"/>
<path d="M10.9631 11.1334H10.9691" stroke="#2899D5" stroke-width="1.5" stroke-linecap="round" stroke-linejoin="round"/>
<path d="M8.49703 9.13335H8.50302" stroke="#2899D5" stroke-width="1.5" stroke-linecap="round" stroke-linejoin="round"/>
<path d="M8.49703 11.1334H8.50302" stroke="#2899D5" stroke-width="1.5" stroke-linecap="round" stroke-linejoin="round"/>
<path d="M6.0295 9.13335H6.03549" stroke="#2899D5" stroke-width="1.5" stroke-linecap="round" stroke-linejoin="round"/>
<path d="M6.0295 11.1334H6.03549" stroke="#2899D5" stroke-width="1.5" stroke-linecap="round" stroke-linejoin="round"/>
</svg>
