<svg width="28" height="28" viewBox="0 0 28 28" fill="none" xmlns="http://www.w3.org/2000/svg">
<path fill-rule="evenodd" clip-rule="evenodd" d="M17.5468 4.72675C18.7252 5.19575 19.0857 6.82908 19.5675 7.35408C20.0493 7.87908 20.7388 8.05758 21.1203 8.05758C23.148 8.05758 24.7918 9.70142 24.7918 11.7279V18.4887C24.7918 21.2071 22.5868 23.4121 19.8685 23.4121H8.13183C5.41233 23.4121 3.2085 21.2071 3.2085 18.4887V11.7279C3.2085 9.70142 4.85233 8.05758 6.88 8.05758C7.26033 8.05758 7.94983 7.87908 8.43283 7.35408C8.91466 6.82908 9.274 5.19575 10.4523 4.72675C11.6318 4.25775 16.3685 4.25775 17.5468 4.72675Z" stroke="white" stroke-width="1.5" stroke-linecap="round" stroke-linejoin="round"/>
<path d="M20.4114 11.0835H20.4219" stroke="white" stroke-width="1.5" stroke-linecap="round" stroke-linejoin="round"/>
<path fill-rule="evenodd" clip-rule="evenodd" d="M17.7087 15.3163C17.7087 13.2676 16.0485 11.6074 13.9998 11.6074C11.9512 11.6074 10.291 13.2676 10.291 15.3163C10.291 17.3649 11.9512 19.0251 13.9998 19.0251C16.0485 19.0251 17.7087 17.3649 17.7087 15.3163Z" stroke="white" stroke-width="1.5" stroke-linecap="round" stroke-linejoin="round"/>
</svg>
