<svg width="32" height="33" viewBox="0 0 32 33" fill="none" xmlns="http://www.w3.org/2000/svg">
<path d="M16 0C7.17733 0 0 7.34425 0 16.3721C0 25.4 7.17733 32.7442 16 32.7442C24.8227 32.7442 32 25.4 32 16.3721C32 7.34425 24.8227 0 16 0ZM16 30.0155C8.648 30.0155 2.66667 23.8951 2.66667 16.3721C2.66667 8.84912 8.648 2.72868 16 2.72868C23.352 2.72868 29.3333 8.84912 29.3333 16.3721C29.3333 23.8951 23.352 30.0155 16 30.0155ZM21.3333 19.1008C21.3333 21.3574 19.5387 23.1938 17.3333 23.1938V24.5582C17.3333 25.3126 16.7373 25.9225 16 25.9225C15.2627 25.9225 14.6667 25.3126 14.6667 24.5582V23.1938H14.3093C12.8867 23.1938 11.5587 22.4107 10.8453 21.1487C10.476 20.4951 10.6947 19.6615 11.3307 19.285C11.9693 18.9043 12.7853 19.1308 13.152 19.7816C13.3907 20.2045 13.8333 20.4651 14.308 20.4651H17.332C18.068 20.4651 18.6653 19.8539 18.6653 19.1008C18.6653 18.5851 18.304 18.1485 17.8067 18.0639L13.752 17.3722C11.9627 17.0679 10.6653 15.4989 10.6653 13.6434C10.6653 11.3868 12.46 9.55039 14.6653 9.55039V8.18605C14.6653 7.43293 15.2613 6.82171 15.9987 6.82171C16.736 6.82171 17.332 7.43293 17.332 8.18605V9.55039H17.6893C19.112 9.55039 20.44 10.3349 21.1533 11.5969C21.5227 12.2491 21.304 13.0827 20.668 13.4606C20.028 13.8385 19.2133 13.6148 18.8467 12.9626C18.608 12.541 18.1653 12.2804 17.6907 12.2804H14.6667C13.9307 12.2804 13.3333 12.893 13.3333 13.6448C13.3333 14.1605 13.6947 14.5971 14.192 14.6817L18.2467 15.3734C20.036 15.6777 21.3333 17.2466 21.3333 19.1021V19.1008Z" fill="#FEC42B"/>
</svg>
