<?xml version="1.0" encoding="UTF-8"?>
<!DOCTYPE svg PUBLIC "-//W3C//DTD SVG 1.1//EN" "http://www.w3.org/Graphics/SVG/1.1/DTD/svg11.dtd">
<svg xmlns="http://www.w3.org/2000/svg" version="1.1" width="512px" height="512px" style="shape-rendering:geometricPrecision; text-rendering:geometricPrecision; image-rendering:optimizeQuality; fill-rule:evenodd; clip-rule:evenodd" xmlns:xlink="http://www.w3.org/1999/xlink">
<g><path style="opacity:0.997" fill="#3a559f" d="M 232.5,-0.5 C 247.833,-0.5 263.167,-0.5 278.5,-0.5C 368.144,10.3879 435.644,54.7213 481,132.5C 497.695,163.971 507.861,197.304 511.5,232.5C 511.5,247.833 511.5,263.167 511.5,278.5C 500.612,368.144 456.279,435.644 378.5,481C 347.029,497.695 313.696,507.861 278.5,511.5C 263.167,511.5 247.833,511.5 232.5,511.5C 142.856,500.612 75.3562,456.279 30,378.5C 13.3053,347.029 3.1386,313.696 -0.5,278.5C -0.5,263.167 -0.5,247.833 -0.5,232.5C 10.3875,142.857 54.7208,75.3573 132.5,30C 163.971,13.3053 197.304,3.1386 232.5,-0.5 Z"/></g>
<g><path style="opacity:1" fill="#fdfefe" d="M 277.5,95.5 C 295.569,95.0402 313.569,95.5402 331.5,97C 332.701,97.9025 333.535,99.0692 334,100.5C 334.667,115.5 334.667,130.5 334,145.5C 332.833,146.667 331.667,147.833 330.5,149C 318.262,150.294 305.929,150.961 293.5,151C 284.219,153.281 278.719,159.114 277,168.5C 276.5,184.163 276.333,199.83 276.5,215.5C 294.503,215.333 312.503,215.5 330.5,216C 335.034,217.857 337.034,221.191 336.5,226C 334.959,241.2 333.126,256.366 331,271.5C 330.215,273.286 329.049,274.786 327.5,276C 310.595,277.471 293.595,277.971 276.5,277.5C 276.667,322.168 276.5,366.835 276,411.5C 275.5,413.333 274.333,414.5 272.5,415C 255.167,415.667 237.833,415.667 220.5,415C 219.299,414.097 218.465,412.931 218,411.5C 217.5,366.835 217.333,322.168 217.5,277.5C 204.401,277.962 191.401,277.462 178.5,276C 176.951,274.786 175.785,273.286 175,271.5C 174.333,254.5 174.333,237.5 175,220.5C 176.5,219 178,217.5 179.5,216C 192.162,215.5 204.829,215.333 217.5,215.5C 217.333,196.83 217.5,178.164 218,159.5C 222.91,124.096 242.743,102.763 277.5,95.5 Z"/></g>
</svg>
