<svg width="25" height="26" viewBox="0 0 25 26" fill="none" xmlns="http://www.w3.org/2000/svg">
<path d="M9.08863 23.5257V19.8456C9.08861 18.9096 9.85172 18.149 10.7972 18.1427H14.2605C15.2105 18.1427 15.9806 18.9051 15.9806 19.8456V23.5371C15.9804 24.3318 16.6211 24.9814 17.4236 25H19.7325C22.0341 25 23.9 23.1528 23.9 20.8742V10.4054C23.8877 9.50899 23.4625 8.66722 22.7455 8.11964L14.8492 1.82236C13.4659 0.72588 11.4994 0.72588 10.1161 1.82236L2.25441 8.13107C1.53469 8.67643 1.10884 9.5196 1.09998 10.4168V20.8742C1.09998 23.1528 2.96583 25 5.26747 25H7.57633C8.3988 25 9.06554 24.3399 9.06554 23.5257" stroke="#9B9B9B" stroke-width="2" stroke-linecap="round" stroke-linejoin="round"/>
</svg>
