<svg width="22" height="22" viewBox="0 0 22 22" fill="none" xmlns="http://www.w3.org/2000/svg">
<path fill-rule="evenodd" clip-rule="evenodd" d="M8.51224 14.1299C4.46046 14.1299 1 14.7423 1 17.1961C1 19.65 4.43938 20.2845 8.51224 20.2845C12.5651 20.2845 16.0245 19.671 16.0245 17.2183C16.0245 14.7655 12.5862 14.1299 8.51224 14.1299Z" stroke="#2B2B2B" stroke-width="1.5" stroke-linecap="round" stroke-linejoin="round"/>
<path fill-rule="evenodd" clip-rule="evenodd" d="M8.51217 10.6298C11.1715 10.6298 13.3271 8.4743 13.3271 5.81492C13.3271 3.15554 11.1715 1 8.51217 1C5.85385 1 3.69827 3.15554 3.69827 5.81492C3.68882 8.46481 5.82855 10.6204 8.47949 10.6298H8.51217Z" stroke="#2B2B2B" stroke-width="1.5" stroke-linecap="round" stroke-linejoin="round"/>
<path d="M18.3435 7.23926V11.466" stroke="#2B2B2B" stroke-width="1.5" stroke-linecap="round" stroke-linejoin="round"/>
<path d="M20.5 9.35254H16.189" stroke="#2B2B2B" stroke-width="1.5" stroke-linecap="round" stroke-linejoin="round"/>
</svg>
