<svg width="60" height="60" viewBox="0 0 60 60" fill="none" xmlns="http://www.w3.org/2000/svg">
<circle cx="30" cy="30" r="30" fill="white" fill-opacity="0.47"/>
<path d="M28.6937 35.0963V22.6537C28.6937 21.4725 28.195 21 26.935 21H23.7588C22.4988 21 22 21.4725 22 22.6537V35.0963C22 36.2775 22.4988 36.75 23.7588 36.75H26.935C28.195 36.75 28.6937 36.2775 28.6937 35.0963Z" stroke="#292D32" stroke-width="1.5" stroke-linecap="round" stroke-linejoin="round"/>
<path d="M37.3875 35.0963V22.6537C37.3875 21.4725 36.8887 21 35.6287 21H32.4525C31.2012 21 30.6937 21.4725 30.6937 22.6537V35.0963C30.6937 36.2775 31.1925 36.75 32.4525 36.75H35.6287C36.8887 36.75 37.3875 36.2775 37.3875 35.0963Z" stroke="#292D32" stroke-width="1.5" stroke-linecap="round" stroke-linejoin="round"/>
</svg>
