<svg width="40" height="40" viewBox="0 0 40 40" fill="none" xmlns="http://www.w3.org/2000/svg">
<path d="M13.1167 35.4675C11.8001 35.4675 10.5501 35.1508 9.45008 34.5175C6.85008 33.0175 5.41675 29.9675 5.41675 25.9508V14.0675C5.41675 10.0341 6.85008 7.0008 9.45008 5.5008C12.0501 4.0008 15.4001 4.28413 18.9001 6.3008L29.1834 12.2341C32.6667 14.2508 34.6001 17.0175 34.6001 20.0175C34.6001 23.0175 32.6834 25.7841 29.1834 27.8008L18.9001 33.7341C16.8834 34.8841 14.9167 35.4675 13.1167 35.4675ZM13.1167 7.03413C12.2167 7.03413 11.4167 7.23413 10.7001 7.6508C8.90008 8.68413 7.91675 10.9675 7.91675 14.0675V25.9341C7.91675 29.0341 8.90008 31.3008 10.7001 32.3508C12.5001 33.4008 14.9667 33.1008 17.6501 31.5508L27.9334 25.6175C30.6167 24.0675 32.1001 22.0841 32.1001 20.0008C32.1001 17.9175 30.6167 15.9341 27.9334 14.3841L17.6501 8.4508C16.0167 7.51746 14.4834 7.03413 13.1167 7.03413Z" fill="white"/>
</svg>
