<svg width="23" height="23" viewBox="0 0 23 23" fill="none" xmlns="http://www.w3.org/2000/svg">
<path d="M8.625 2.875L8.625 20.125C8.625 21.7062 9.91875 23 11.5 23C13.0812 23 14.375 21.7062 14.375 20.125L14.375 2.875C14.375 1.29375 13.0812 0 11.5 0C9.91875 0 8.625 1.29375 8.625 2.875ZM12.4583 2.875L12.4583 20.125C12.4583 20.6521 12.0271 21.0833 11.5 21.0833C10.9729 21.0833 10.5417 20.6521 10.5417 20.125L10.5417 2.875C10.5417 2.34792 10.9729 1.91667 11.5 1.91667C12.0271 1.91667 12.4583 2.34792 12.4583 2.875ZM5.75 20.125L5.75 8.625C5.75 7.04375 4.45625 5.75 2.875 5.75C1.29375 5.75 0 7.04375 0 8.625L0 20.125C0 21.7062 1.29375 23 2.875 23C4.45625 23 5.75 21.7062 5.75 20.125ZM1.91667 20.125L1.91667 8.625C1.91667 8.09792 2.34792 7.66667 2.875 7.66667C3.40208 7.66667 3.83333 8.09792 3.83333 8.625L3.83333 20.125C3.83333 20.6521 3.40208 21.0833 2.875 21.0833C2.34792 21.0833 1.91667 20.6521 1.91667 20.125ZM17.25 14.375V20.125C17.25 21.7062 18.5437 23 20.125 23C21.7062 23 23 21.7062 23 20.125V14.375C23 12.7937 21.7062 11.5 20.125 11.5C18.5437 11.5 17.25 12.7937 17.25 14.375ZM21.0833 14.375V20.125C21.0833 20.6521 20.6521 21.0833 20.125 21.0833C19.5979 21.0833 19.1667 20.6521 19.1667 20.125V14.375C19.1667 13.8479 19.5979 13.4167 20.125 13.4167C20.6521 13.4167 21.0833 13.8479 21.0833 14.375Z" fill="#9B9B9B"/>
</svg>
